<svg xmlns="http://www.w3.org/2000/svg" width="128" height="128">
    <ellipse fill="rgba(0,0,0,0.5)" cx="64" cy="64" rx="64" ry="64"/>
    <path fill="rgba(255,255,255,0.7)" d="m34.50013,96.05053l0,11.11666a4.83333,4.83333 0 0 1 -9.66666,0l0,-24.16667a4.83333,4.83333 0 0 1 4.83333,-4.83333l24.16667,0a4.83333,4.83333 0 1 1 0,9.66666l-14.01667,0a33.83333,33.83333 0 0 0 57.51667,-24.16666a4.83333,4.83333 0 1 1 9.66666,0a43.5,43.5 0 0 1 -72.5,32.38334zm58,-64.76668l0,-11.11666a4.83333,4.83333 0 0 1 9.66666,0l0,24.16667a4.83333,4.83333 0 0 1 -4.83333,4.83333l-24.16667,0a4.83333,4.83333 0 0 1 0,-9.66666l14.01668,0a33.83333,33.83333 0 0 0 -57.51667,24.16667a4.83333,4.83333 0 1 1 -9.66667,0a43.5,43.5 0 0 1 72.5,-32.38334z" transform="rotate(45, 64, 64)"/>
</svg>
