<svg width="128" height="128" xmlns="http://www.w3.org/2000/svg">
    <g fill="#000">
        <path d="m64,1c-34.79963,0 -63,28.20825 -63,63s28.20037,63 63,63s63,-28.20825 63,-63s-28.20037,-63 -63,-63zm29.19263,81.05737c3.07912,3.07912 3.07912,8.05613 0,11.13525c-1.53563,1.53563 -3.55163,2.30737 -5.56763,2.30737s-4.032,-0.77174 -5.56763,-2.30737l-18.05737,-18.05738l-18.05738,18.05738c-1.53562,1.53563 -3.55163,2.30737 -5.56762,2.30737s-4.032,-0.77174 -5.56762,-2.30737c-3.07913,-3.07912 -3.07913,-8.05613 0,-11.13525l18.05738,-18.05737l-18.05738,-18.05738c-3.07913,-3.07912 -3.07913,-8.05612 0,-11.13525s8.05612,-3.07913 11.13525,0l18.05738,18.05738l18.05737,-18.05738c3.07912,-3.07913 8.05613,-3.07913 11.13525,0s3.07912,8.05612 0,11.13525l-18.05738,18.05738l18.05738,18.05737z"/>
    </g>
</svg>
