<svg width="128" height="128" xmlns="http://www.w3.org/2000/svg">
    <g fill="rgba(0, 0, 0, 0.5)">
        <path d="m64.00114,2.10312c-34.79661,0 -63.00591,27.71191 -63.00591,61.89689c0,34.18495 28.21044,61.89687 63.00591,61.89687c34.79432,0 63.00362,-27.71193 63.00362,-61.89687c0,-34.18499 -28.2093,-61.89689 -63.00362,-61.89689zm22.18784,95.58203c-6.61129,4.20084 -14.28355,6.33154 -22.18784,6.33154c-20.38388,0 -37.33003,-14.99374 -40.4122,-34.08836l-11.30544,0c-1.88634,0 -2.58714,-1.11311 -1.55823,-2.66652l15.39706,-23.07978c1.02891,-1.5534 2.71289,-1.59834 3.74295,-0.04492l15.39823,23.14716c1.0289,1.55341 0.32812,2.64404 -1.55822,2.64404l-11.98796,0c2.98726,15.72499 16.32538,26.22591 32.2838,26.22591c6.35864,0 12.52867,-1.60396 17.84243,-4.98033c1.8532,-1.17824 4.33286,-0.70314 5.53325,1.12096c1.19923,1.82182 0.66762,4.21089 -1.18784,5.39029l0.00001,0.00002zm31.99229,-37.36929l-15.39709,23.15727c-1.02893,1.55342 -2.71288,1.5759 -3.74181,0.02249l-15.3982,-23.1921c-1.0289,-1.55341 -0.3281,-2.73279 1.5582,-2.73279l11.01509,0c-3.11418,-14.60176 -16.37567,-25.80804 -32.21632,-25.80804c-5.99513,0 -11.86334,1.51296 -16.97017,4.53664c-1.89206,1.12098 -4.35115,0.53354 -5.49209,-1.32539c-1.14095,-1.86003 -0.53275,-4.25248 1.36046,-5.37345c6.35295,-3.76276 13.64906,-5.70592 21.10067,-5.70592c20.26725,0 37.12992,14.58155 40.3504,33.67616l12.27145,0c1.88636,0.00112 2.58832,1.19174 1.55941,2.74514l0,0l0.00001,0z"/>
    </g>
</svg>
