<svg width="128" height="128" xmlns="http://www.w3.org/2000/svg">
    <g fill="#000" transform="matrix(0.0510105, 0, 0, -0.0510105, -5.29875, 131.091)">
        <path d="m278.520538,2344.249512c-63,-28 -107,-74 -130,-136c-16,-44 -20,-78 -20,-183.999878l0,-131l29,-29l29,-29l146,0l146,0l0,-663c0,-732 -1,-725 63.000031,-809c19,-26 53,-54 86,-70l55,-28l854.999695,0c839,0 857,1 901,21c63,28 107,74 130,136c16,44 20,78 20,184l0,131l-29,29l-29,29l-146,0l-146,0l0,680c0,653.999878 -1,680.999878 -20,732.999878c-23,62 -67,108 -130,136c-44,20 -62,21 -904.999756,21c-842.999969,0 -860.999969,-1 -904.999969,-21zm1443.999725,-194c-7,-19 -14,-57 -14,-85l0,-49.999878l-699.999695,0l-700.000031,0l0,37.999878c0,58 18,108 43,120c15,7 236.000031,11 703.999969,11l681.999756,1l-15,-35zm290,24c14,-7 29,-19 33,-28c4,-9 10,-394.999878 13,-858.999878l5,-842l-671,0c-754.999695,0 -705.999695,-5 -723.999695,75c-5,22 -10,322 -10,678l0,637l583.999939,0l584.999756,0l28,24c27,24 28,27 33,151c5,123.999878 6,126.999878 33,150.999878c31,27 54,30 91,13zm396,-1595.999878c0,-63 -17,-109 -46,-121c-39,-19 -73,-14 -99,13c-21,20 -25,34 -25,85l0,60l85,0l85,0l0,-37z"/>
        <path d="m828.520569,1575.249634l0,-90l439.999695,0l440,0l0,90l0,90l-440,0l-439.999695,0l0,-90z"/>
        <path d="m828.520569,1225.249634l0,-90l439.999695,0l440,0l0,90l0,90l-440,0l-439.999695,0l0,-90z"/>
        <path d="m828.520569,875.249634l0,-90l264.999939,0l264.999756,0l0,90l0,90l-264.999756,0l-264.999939,0l0,-90z"/>
    </g>
</svg>
